<?xml version="1.0" encoding="UTF-8"?><svg version="1.1" viewBox="0 0 512 512" xmlns="http://www.w3.org/2000/svg" xmlns:xlink="http://www.w3.org/1999/xlink"><!--Generated by IJSVG (https://github.com/curthard89/IJSVG)--><g fill="#ffffff"><path d="M344.4,94.3l71.6,-71.7l-22.6,-22.6l-77.6,77.6c-27.8,-13.9 -58.3,-22.6 -91.8,-22.6c-81.9,0 -145.7,52.2 -224,137c34.8,37.4 66.8,72.7 103.3,98.1l-71.3,71.3l22.6,22.6l76.9,-76.9c27,13.7 57,21.9 92.5,21.9c99.9,0 173.4,-81.8 224,-135.5c-28,-34.1 -62.4,-71.8 -103.6,-99.2Zm-210,97.7c0,-50.4 40.2,-91.3 89.6,-91.3c19.3,0 37.2,6.2 51.8,16.9l-50.7,50.7c-0.7,-2.6 -1.1,-5.4 -1.1,-8.3c0,-7.9 2.9,-15.1 7.6,-20.7c-2.5,-0.4 -5,-0.6 -7.6,-0.6c-28.8,0 -52.3,23.9 -52.3,53.3c0,8.6 2,16.8 5.6,24l-27.3,27.4c-9.8,-14.7 -15.6,-32.4 -15.6,-51.4Zm89.6,91.3c-19.3,0 -37.2,-6.2 -51.8,-16.9l27.4,-27.4c7.3,4 15.6,6.2 24.4,6.2c28.8,0 52.3,-23.9 52.3,-53.3c0,-2.3 -0.2,-4.6 -0.4,-6.9c-5.5,4.3 -12.3,6.9 -19.8,6.9c-2.9,0 -5.6,-0.4 -8.3,-1.1l50.3,-50.3c9.8,14.6 15.6,32.3 15.6,51.4c-0.1,50.5 -40.3,91.4 -89.7,91.4Z" transform="translate(32, 64)"></path></g></svg>
